<svg xmlns="http://www.w3.org/2000/svg" xmlns:xlink="http://www.w3.org/1999/xlink" width="512" height="512" viewBox="0 0 108 108">
  <defs>
    <linearGradient id="bg" x1="0" y1="0" x2="108" y2="108" gradientUnits="userSpaceOnUse">
      <stop offset="0" stop-color="#2E7D32"/>
      <stop offset="1" stop-color="#1B5E20"/>
    </linearGradient>
    <radialGradient id="body" cx="46" cy="42" r="42" gradientUnits="userSpaceOnUse">
      <stop offset="0" stop-color="#FF6F5E"/>
      <stop offset="0.5" stop-color="#E53935"/>
      <stop offset="1" stop-color="#B71C1C"/>
    </radialGradient>
  </defs>

  <rect x="0" y="0" width="108" height="108" rx="20" ry="20" fill="url(#bg)"/>

  <path d="M14,86 L18,66 L22,86 Z" fill="#144D17" opacity="0.55"/>
  <path d="M26,90 L30,72 L34,90 Z" fill="#144D17" opacity="0.45"/>
  <path d="M84,18 L88,2 L92,18 Z" fill="#3E8E41" opacity="0.35"/>

  <circle cx="54" cy="54" r="33" fill="none" stroke="#FFFFFF" stroke-width="1" stroke-opacity="0.22"/>
  <circle cx="54" cy="54" r="29" fill="none" stroke="#FFFFFF" stroke-width="1.3" stroke-opacity="0.32"/>

  <circle cx="54" cy="54" r="29" fill="#7A0C0C"/>
  <circle cx="54" cy="54" r="26" fill="url(#body)"/>

  <path d="M33,42 C37,30 48,24 60,26 C50,25 40,30 36,40 C34,45 34,50 36,54 C32,51 31,47 33,42 Z" fill="#FFFFFF" opacity="0.35"/>

  <g transform="translate(32.4,32.4) scale(1.8)">
    <path fill="#FFFFFF" d="M11,21h-1l1,-7h-3.5c-0.58,0 -0.57,-0.32 -0.38,-0.66c0.19,-0.34 0.05,-0.08 0.07,-0.12C8.48,10.94 10.42,7.54 13,3h1l-1,7h3.5c0.49,0 0.56,0.33 0.47,0.51l-0.07,0.15C12.96,17.55 11,21 11,21z"/>
  </g>
</svg>
